<svg id="visual" viewBox="0 0 900 600" width="900" height="600" xmlns="http://www.w3.org/2000/svg" xmlns:xlink="http://www.w3.org/1999/xlink" version="1.1"><rect x="0" y="0" width="900" height="600" fill="#0a0a0a"></rect><path d="M0 427L21.5 418.5C43 410 86 393 128.8 396.3C171.7 399.7 214.3 423.3 257.2 425C300 426.7 343 406.3 385.8 398.5C428.7 390.7 471.3 395.3 514.2 394.8C557 394.3 600 388.7 642.8 385.5C685.7 382.3 728.3 381.7 771.2 395.2C814 408.7 857 436.3 878.5 450.2L900 464L900 601L878.5 601C857 601 814 601 771.2 601C728.3 601 685.7 601 642.8 601C600 601 557 601 514.2 601C471.3 601 428.7 601 385.8 601C343 601 300 601 257.2 601C214.3 601 171.7 601 128.8 601C86 601 43 601 21.5 601L0 601Z" fill="#27272a"></path><path d="M0 488L21.5 482.7C43 477.3 86 466.7 128.8 460.7C171.7 454.7 214.3 453.3 257.2 446.8C300 440.3 343 428.7 385.8 427.3C428.7 426 471.3 435 514.2 441.3C557 447.7 600 451.3 642.8 451.5C685.7 451.7 728.3 448.3 771.2 441.7C814 435 857 425 878.5 420L900 415L900 601L878.5 601C857 601 814 601 771.2 601C728.3 601 685.7 601 642.8 601C600 601 557 601 514.2 601C471.3 601 428.7 601 385.8 601C343 601 300 601 257.2 601C214.3 601 171.7 601 128.8 601C86 601 43 601 21.5 601L0 601Z" fill="#2c2b45"></path><path d="M0 452L21.5 448.8C43 445.7 86 439.3 128.8 436.3C171.7 433.3 214.3 433.7 257.2 446C300 458.3 343 482.7 385.8 483.3C428.7 484 471.3 461 514.2 454.2C557 447.3 600 456.7 642.8 465.7C685.7 474.7 728.3 483.3 771.2 490.7C814 498 857 504 878.5 507L900 510L900 601L878.5 601C857 601 814 601 771.2 601C728.3 601 685.7 601 642.8 601C600 601 557 601 514.2 601C471.3 601 428.7 601 385.8 601C343 601 300 601 257.2 601C214.3 601 171.7 601 128.8 601C86 601 43 601 21.5 601L0 601Z" fill="#342e60"></path><path d="M0 468L21.5 474.3C43 480.7 86 493.3 128.8 497.5C171.7 501.7 214.3 497.3 257.2 491.5C300 485.7 343 478.3 385.8 478.7C428.7 479 471.3 487 514.2 494C557 501 600 507 642.8 505.2C685.7 503.3 728.3 493.7 771.2 486.3C814 479 857 474 878.5 471.5L900 469L900 601L878.5 601C857 601 814 601 771.2 601C728.3 601 685.7 601 642.8 601C600 601 557 601 514.2 601C471.3 601 428.7 601 385.8 601C343 601 300 601 257.2 601C214.3 601 171.7 601 128.8 601C86 601 43 601 21.5 601L0 601Z" fill="#402f7a"></path><path d="M0 501L21.5 503.3C43 505.7 86 510.3 128.8 512.5C171.7 514.7 214.3 514.3 257.2 512.7C300 511 343 508 385.8 505.8C428.7 503.7 471.3 502.3 514.2 502.5C557 502.7 600 504.3 642.8 507.7C685.7 511 728.3 516 771.2 517.7C814 519.3 857 517.7 878.5 516.8L900 516L900 601L878.5 601C857 601 814 601 771.2 601C728.3 601 685.7 601 642.8 601C600 601 557 601 514.2 601C471.3 601 428.7 601 385.8 601C343 601 300 601 257.2 601C214.3 601 171.7 601 128.8 601C86 601 43 601 21.5 601L0 601Z" fill="#532c92"></path><path d="M0 555L21.5 555.8C43 556.7 86 558.3 128.8 561.7C171.7 565 214.3 570 257.2 571.3C300 572.7 343 570.3 385.8 564C428.7 557.7 471.3 547.3 514.2 547C557 546.7 600 556.3 642.8 559.3C685.7 562.3 728.3 558.7 771.2 557.8C814 557 857 559 878.5 560L900 561L900 601L878.5 601C857 601 814 601 771.2 601C728.3 601 685.7 601 642.8 601C600 601 557 601 514.2 601C471.3 601 428.7 601 385.8 601C343 601 300 601 257.2 601C214.3 601 171.7 601 128.8 601C86 601 43 601 21.5 601L0 601Z" fill="#6b21a8"></path></svg>